<?xml version="1.0" standalone="no"?>
<!DOCTYPE svg PUBLIC "-//W3C//DTD SVG 20010904//EN"
 "http://www.w3.org/TR/2001/REC-SVG-20010904/DTD/svg10.dtd">
<svg version="1.0" xmlns="http://www.w3.org/2000/svg"
 width="832.000000pt" height="832.000000pt" viewBox="0 0 832.000000 832.000000"
 preserveAspectRatio="xMidYMid meet">
<metadata>
Created by potrace 1.11, written by Peter Selinger 2001-2013
</metadata>
<g transform="translate(0.000000,832.000000) scale(0.100000,-0.100000)"
fill="#000000" stroke="none">
<path d="M5999 6800 l-560 -560 -54 3 c-30 1 -55 0 -55 -3 0 -3 -27 -5 -60 -5
-33 0 -60 2 -60 5 0 6 -88 3 -106 -4 -8 -3 -14 -2 -14 2 0 4 -54 7 -120 7 -66
0 -120 -4 -120 -8 0 -5 -5 -5 -10 -2 -14 9 -406 9 -420 0 -5 -3 -10 -3 -10 2
0 9 -83 8 -106 -1 -8 -3 -14 -2 -14 2 0 7 -151 6 -182 -2 -10 -2 -18 -1 -18 2
0 8 -86 6 -106 -2 -8 -3 -14 -2 -14 2 0 4 -126 7 -280 7 -154 0 -280 -2 -280
-5 0 -3 -27 -5 -60 -5 -33 0 -60 2 -60 5 0 6 -88 3 -106 -4 -8 -3 -14 -2 -14
2 0 4 -54 7 -120 7 -66 0 -120 -4 -120 -8 0 -5 -4 -6 -9 -2 -8 4 -257 9 -339
6 -33 -1 -2512 -2482 -2512 -2515 0 -42 16 -46 180 -46 36 1 76 0 90 0 14 -1
32 -1 40 -1 8 1 26 1 40 0 14 0 32 0 40 0 8 1 26 1 40 1 142 -5 220 -4 220 3
0 5 4 5 10 2 9 -6 103 -9 125 -5 6 1 14 2 20 0 25 -5 144 -2 153 4 6 3 13 2
16 -3 3 -5 21 -6 38 -2 18 4 35 8 38 9 3 1 21 -3 40 -7 20 -4 44 -5 55 -1 11
4 28 3 37 -1 14 -8 160 133 819 792 673 673 807 803 833 805 17 2 36 6 43 9 7
2 15 0 18 -4 2 -5 19 -6 37 -2 18 4 52 4 76 1 23 -4 42 -3 42 2 0 5 5 6 11 3
13 -9 284 -9 297 -1 6 3 13 2 16 -3 3 -5 21 -5 42 -1 19 5 48 5 63 0 16 -4 34
-4 41 0 7 4 25 4 40 0 15 -4 33 -4 40 0 7 5 19 6 26 3 23 -9 224 -9 224 0 0 5
4 5 10 2 9 -6 102 -9 125 -5 6 1 23 1 39 0 82 -5 146 -4 146 3 0 5 4 5 10 2 9
-6 103 -9 125 -5 6 1 13 2 16 2 4 -1 23 -2 43 -4 20 -1 36 -3 36 -5 0 -2 -162
-165 -360 -363 -372 -372 -389 -394 -341 -419 10 -6 38 -10 62 -11 24 0 68 -1
97 -2 28 -2 52 0 52 4 0 4 12 3 28 -1 15 -4 39 -4 55 0 15 4 27 4 27 1 0 -4
29 -7 65 -7 36 0 65 3 65 7 0 4 12 3 28 -1 15 -4 39 -4 55 0 15 4 27 4 27 1 0
-4 29 -7 65 -7 36 0 65 3 65 7 0 4 12 3 28 -1 15 -4 39 -4 55 0 15 4 27 4 27
1 0 -4 29 -7 65 -7 36 0 65 3 65 7 0 4 12 3 28 -1 15 -4 39 -4 55 0 15 4 27 4
27 1 0 -8 85 -6 106 2 8 3 14 1 14 -5 0 -6 8 -6 21 1 11 7 650 641 1420 1411
1100 1100 1399 1404 1399 1424 0 14 -8 29 -19 35 -13 6 -221 10 -605 10 l-586
0 -561 -560z"/>
<path d="M7100 5280 c-6 -4 -22 -5 -35 -2 -20 3 -263 -235 -1669 -1642 -1261
-1262 -1646 -1652 -1646 -1670 0 -13 7 -29 15 -36 8 -7 15 -10 15 -8 0 3 18 2
39 -2 22 -4 45 -4 52 0 6 4 25 4 40 0 16 -5 31 -5 34 0 3 4 20 4 39 0 19 -4
40 -4 46 0 7 4 26 4 41 0 16 -5 31 -5 34 0 3 4 20 4 39 0 19 -4 40 -4 46 0 7
4 26 4 41 0 16 -5 31 -5 34 0 3 4 20 4 39 0 19 -4 40 -4 46 0 7 4 26 4 41 0
16 -5 31 -5 34 0 3 4 20 4 39 0 19 -4 40 -4 46 0 7 4 26 4 41 0 16 -5 31 -5
34 0 3 4 20 4 39 0 19 -4 40 -4 46 0 7 4 26 4 41 0 16 -5 31 -5 34 0 3 4 20 4
39 0 19 -4 40 -4 47 0 7 5 22 4 35 0 12 -5 24 -6 27 -4 3 3 21 7 40 9 32 3
185 153 1676 1644 1290 1290 1641 1646 1641 1666 0 32 -25 44 -88 43 -28 0
-55 2 -59 5 -5 3 -15 2 -23 -3 -7 -4 -23 -5 -35 0 -12 5 -27 5 -34 0 -7 -4
-28 -4 -47 0 -19 4 -36 4 -39 0 -2 -4 -22 -4 -43 0 -21 4 -47 5 -58 3 -10 -1
-29 -3 -41 -3 -13 0 -33 0 -45 0 -13 0 -32 -2 -43 -4 -11 -1 -31 0 -45 4 -14
4 -34 4 -45 0 -11 -4 -32 -4 -47 1 -15 4 -30 4 -33 -1 -3 -4 -21 -4 -40 0 -20
4 -38 4 -41 -1 -3 -5 -9 -7 -15 -4 -5 3 -35 6 -66 5 -32 0 -69 0 -83 1 -26 1
-28 1 -75 -4 -16 -1 -44 1 -61 4 -18 4 -37 3 -44 -1z"/>
<path d="M3056 3842 c-10 -2 -650 -636 -1422 -1408 -1106 -1106 -1404 -1409
-1404 -1429 0 -14 8 -29 19 -35 13 -6 221 -10 605 -10 l586 0 1405 1405 c1106
1106 1405 1410 1405 1430 0 14 -8 29 -21 35 -22 12 -160 17 -178 6 -6 -4 -11
-4 -11 1 0 4 -34 8 -75 8 -41 0 -75 -2 -75 -5 0 -3 -27 -5 -60 -5 -33 0 -60 2
-60 5 0 6 -88 3 -106 -4 -8 -3 -14 -2 -14 2 0 8 -85 6 -106 -2 -8 -3 -14 -2
-14 2 0 8 -85 6 -106 -2 -8 -3 -14 -2 -14 2 0 8 -85 6 -106 -2 -8 -3 -14 -2
-14 2 0 8 -85 6 -106 -2 -8 -3 -14 -2 -14 2 0 7 -82 10 -114 4z"/>
</g>
</svg>
